<?xml version="1.0" encoding="UTF-8" standalone="no"?>
<!DOCTYPE svg PUBLIC "-//W3C//DTD SVG 1.1//EN"
 "http://www.w3.org/Graphics/SVG/1.1/DTD/svg11.dtd">
<!-- Generated by graphviz version 2.40.1 (20161225.0304)
 -->
<!-- Title: %0 Pages: 1 -->
<svg width="102pt" height="54pt"
 viewBox="0.00 0.00 102.33 54.40" xmlns="http://www.w3.org/2000/svg" xmlns:xlink="http://www.w3.org/1999/xlink">
<g id="graph0" class="graph" transform="scale(1 1) rotate(0) translate(4 50.4)">
<title>%0</title>
<polygon fill="#ffffff" stroke="transparent" points="-4,4 -4,-50.4 98.3333,-50.4 98.3333,4 -4,4"/>
<text text-anchor="middle" x="47.1666" y="-28" font-family="Roboto Condensed, sans-serif" font-size="16.00" fill="#000000">graphql&#45;tag</text>
<!-- graphql&#45;tag@2.11.0 -->
<g id="node1" class="node">
<title>graphql&#45;tag@2.11.0</title>
<path fill="none" stroke="#000000" d="M88.0332,-19.3011C88.0332,-19.3011 6.3001,-19.3011 6.3001,-19.3011 3.0664,-19.3011 -.1672,-16.0674 -.1672,-12.8337 -.1672,-12.8337 -.1672,-6.3663 -.1672,-6.3663 -.1672,-3.1326 3.0664,.1011 6.3001,.1011 6.3001,.1011 88.0332,.1011 88.0332,.1011 91.2669,.1011 94.5005,-3.1326 94.5005,-6.3663 94.5005,-6.3663 94.5005,-12.8337 94.5005,-12.8337 94.5005,-16.0674 91.2669,-19.3011 88.0332,-19.3011"/>
<text text-anchor="middle" x="47.1666" y="-6.3" font-family="Roboto Condensed, sans-serif" font-size="11.00" fill="#000000">graphql&#45;tag@2.11.0</text>
</g>
</g>
</svg>
